<?xml version="1.0" standalone="no"?><svg xmlns="http://www.w3.org/2000/svg" viewBox="0 0 1440 320"><path fill="#0099ff" fill-opacity="0.7" d="M0,96L68.6,96L137.1,256L205.7,32L274.3,64L342.9,224L411.4,320L480,128L548.6,160L617.1,192L685.7,32L754.3,160L822.9,96L891.4,64L960,320L1028.6,288L1097.1,32L1165.7,192L1234.3,64L1302.9,96L1371.4,224L1440,32L1440,320L1371.4,320L1302.9,320L1234.3,320L1165.7,320L1097.1,320L1028.6,320L960,320L891.4,320L822.9,320L754.3,320L685.7,320L617.1,320L548.6,320L480,320L411.4,320L342.9,320L274.3,320L205.7,320L137.1,320L68.6,320L0,320Z"></path></svg>